<svg id="Ebene_1" data-name="Ebene 1" xmlns="http://www.w3.org/2000/svg" viewBox="0 0 1360 1359"><defs><style>.cls-1{fill:#39b54a;}.cls-2{font-size:1000px;fill:#fff;font-family:MyriadPro-Regular, Myriad Pro;}</style></defs><path class="cls-1" d="M684,1358a673.08,673.08,0,1,1,262.74-53A671.18,671.18,0,0,1,684,1358Z" transform="translate(-4 -4)"/><path class="cls-1" d="M684,14a667.14,667.14,0,0,1,374.6,114.34,671.55,671.55,0,0,1,242.75,294.57,668.22,668.22,0,0,1-61.77,634.9,671.92,671.92,0,0,1-294.79,242.58,669.47,669.47,0,0,1-635.39-61.73A671.55,671.55,0,0,1,66.65,944.09a668.22,668.22,0,0,1,61.77-634.9A671.92,671.92,0,0,1,423.21,66.61,666.19,666.19,0,0,1,684,14m0-10C308.45,4,4,308.22,4,683.5S308.45,1363,684,1363s680-304.22,680-679.5S1059.55,4,684,4Z" transform="translate(-4 -4)"/><text class="cls-2" transform="translate(316.67 1008.66)">C</text></svg>